<svg width="1839" height="426" viewBox="0 0 1839 426" fill="none" xmlns="http://www.w3.org/2000/svg">
<g filter="url(#filter0_d_1_4)">
<path d="M368.609 105.611C229.955 122.198 39 220.872 39 220.872V367.928L1767 391.333V62.3334C1767 62.3334 1233.65 231.774 882.059 208.948C676.133 195.579 572.986 81.163 368.609 105.611Z" fill="url(#paint0_linear_1_4)"/>
</g>
<g filter="url(#filter1_d_1_4)">
<path d="M1380.5 120.833C1514.98 136.714 1800 246.125 1800 246.125V386.924L124 409.333V94.3334C124 94.3334 375.49 244.188 716.5 222.333C916.229 209.533 1182.27 97.4255 1380.5 120.833Z" fill="url(#paint1_linear_1_4)"/>
</g>
<defs>
<filter id="filter0_d_1_4" x="0" y="0.333374" width="1806" height="407" filterUnits="userSpaceOnUse" color-interpolation-filters="sRGB">
<feFlood flood-opacity="0" result="BackgroundImageFix"/>
<feColorMatrix in="SourceAlpha" type="matrix" values="0 0 0 0 0 0 0 0 0 0 0 0 0 0 0 0 0 0 127 0" result="hardAlpha"/>
<feOffset dy="-23"/>
<feGaussianBlur stdDeviation="19.5"/>
<feComposite in2="hardAlpha" operator="out"/>
<feColorMatrix type="matrix" values="0 0 0 0 0 0 0 0 0 0 0 0 0 0 0 0 0 0 0.25 0"/>
<feBlend mode="normal" in2="BackgroundImageFix" result="effect1_dropShadow_1_4"/>
<feBlend mode="normal" in="SourceGraphic" in2="effect1_dropShadow_1_4" result="shape"/>
</filter>
<filter id="filter1_d_1_4" x="85" y="32.3334" width="1754" height="393" filterUnits="userSpaceOnUse" color-interpolation-filters="sRGB">
<feFlood flood-opacity="0" result="BackgroundImageFix"/>
<feColorMatrix in="SourceAlpha" type="matrix" values="0 0 0 0 0 0 0 0 0 0 0 0 0 0 0 0 0 0 127 0" result="hardAlpha"/>
<feOffset dy="-23"/>
<feGaussianBlur stdDeviation="19.5"/>
<feComposite in2="hardAlpha" operator="out"/>
<feColorMatrix type="matrix" values="0 0 0 0 0 0 0 0 0 0 0 0 0 0 0 0 0 0 0.25 0"/>
<feBlend mode="normal" in2="BackgroundImageFix" result="effect1_dropShadow_1_4"/>
<feBlend mode="normal" in="SourceGraphic" in2="effect1_dropShadow_1_4" result="shape"/>
</filter>
<linearGradient id="paint0_linear_1_4" x1="58.5807" y1="189.076" x2="1834.81" y2="158.933" gradientUnits="userSpaceOnUse">
<stop stop-color="#192C55"/>
<stop offset="1" stop-color="#BF1E2E"/>
</linearGradient>
<linearGradient id="paint1_linear_1_4" x1="1781.01" y1="215.682" x2="58.2393" y2="186.066" gradientUnits="userSpaceOnUse">
<stop stop-color="#192C55"/>
<stop offset="1" stop-color="#BF1E2E"/>
</linearGradient>
</defs>
</svg>
